<?xml version="1.0" encoding="UTF-8"?> <svg xmlns="http://www.w3.org/2000/svg" fill="none" height="66" viewBox="0 0 127 66" width="127"><g fill="#fff"><path d="m6.438 34.861h-6.4010017v.215h.2789997c.722002 0 1.394002.556 1.394002 1.251v12.23c-.013.758-.634 1.365-1.407002 1.365h-.2789997v.227h4.7910017v-.227h-.278c-.773 0-1.394-.606-1.407-1.365v-5.622h3.726c.583.025 1.039.493 1.039 1.074v.328h.215v-3.462l-.215.013v.316c0 .594-.469 1.061-1.065 1.074h-3.7v-6.747h4.639c.583.012 1.052.493 1.052 1.074v.328h.228v-2.463c-.406.164-1.673.379-2.611.391z"></path><path d="m22.649 48.279c-.849-.922-2.738-3.613-2.738-3.613-.431-.594-1.103-1.327-1.572-1.542 2.104 0 3.727-2.047 3.727-4.157 0-2.539-1.635-4.106-4.284-4.106h-5.907v.215h.279c.773 0 1.394.619 1.407 1.377v12.117c-.025.745-.646 1.352-1.407 1.352h-.279v.227h4.791l-.013-.227h-.279c-.761 0-1.382-.606-1.394-1.365v-13.013c.279.013 1.61-.05 2.725.013 1.622.088 2.662 1.352 2.712 3.336.013.48-.038.998-.139 1.301-.621 1.971-2.281 2.236-3.422 2.274-.659.012-1.153 0-1.153 0v.202c.799 0 1.445.758 2.015 1.478.165.202 2.636 3.79 2.877 4.081.697.821 1.787 1.921 3.828 1.921h1.204v-.227c-1.293-.002-2.104-.684-2.978-1.644z"></path><path d="m33.802 49.795c-3.714 0-6.185-2.918-6.185-7.29 0-4.371 2.472-7.29 6.185-7.29 3.726 0 6.198 2.919 6.198 7.29s-2.472 7.29-6.198 7.29zm0-15.237c-4.652 0-7.871 3.184-7.871 7.947s3.219 7.947 7.871 7.947c4.664 0 7.884-3.184 7.884-7.947s-3.22-7.947-7.884-7.947z"></path><path d="m47.808 49.921h-.393c-.735 0-1.331-.568-1.356-1.301v-10.031l-.989-1.049v11.068c-.025.733-.621 1.314-1.356 1.314h-.405v.227h4.512zm7.44-15.06v.215h.406c.735 0 1.344.594 1.356 1.327v10.827l-16.173-17.283-1.85-1.971-2.573-2.754-1.838-1.958-2.218-2.375-1.812-1.933-2.053-2.198-1.8-1.92-2.078-2.211-1.762-1.895-1.483-1.58001-1.762-1.882c-.304.177-.824.467-1.318.771l1.749 1.857 1.394 1.50301 1.8 1.908 1.977 2.123 1.8 1.92 1.965 2.098h.013l1.825 1.958 2.129 2.274 1.876 2.009 2.497 2.666 1.876 2.009 18.809 20.088h.203s-.203-1.377-.203-2.792v-11.272c.025-.733.621-1.314 1.356-1.314h.406v-.215z"></path><path d="m71.218 34.836h-7.402c-.951 0-2.231-.215-2.636-.392v2.742h.215v-.392c0-.695.558-1.263 1.255-1.301h4.157v13.102c-.038.746-.647 1.327-1.407 1.327h-.279v.227h4.791v-.227h-.279c-.76 0-1.381-.594-1.407-1.352v-13.077h4.157c.697.038 1.242.607 1.242 1.301v.392h.228v-2.742c-.417.177-1.697.392-2.635.392z"></path><path d="m89.165 46.624c-.672 1.655-1.56 2.855-3.879 2.855h-3.143v-13.026c.012-.758.634-1.364 1.394-1.364h.279l.013-.228h-4.791v.228h.279c.761 0 1.382.606 1.394 1.364v12.103c-.012.758-.634 1.365-1.394 1.365h-.279v.227h9.075l1.28-3.525h-.228z"></path><path d="m95.528 35.089h.279v-.228h-4.791v.228h.279c.761 0 1.382.606 1.407 1.352v12.116c-.025.758-.646 1.365-1.407 1.365h-.279v.227h4.791v-.227h-.279c-.773 0-1.394-.606-1.407-1.365v-12.116c.025-.758.646-1.352 1.407-1.352z"></path><path d="m110.027 34.861v.215h.406c.748 0 1.344.594 1.356 1.327v10.827l-11.926-12.697h-.215s.203 1.238.203 2.729v11.346c-.013.733-.621 1.314-1.356 1.314h-.406v.227h4.512v-.227h-.405c-.735 0-1.331-.568-1.356-1.301v-10.866l11.939 12.697h.203s-.203-1.377-.203-2.792v-11.27c.026-.733.621-1.314 1.356-1.314h.406v-.215z"></path><path d="m126.758 46.624c-.684 1.655-1.571 2.855-3.891 2.855h-3.143v-6.544h3.726c.57.025 1.039.493 1.039 1.074v.328h.216v-3.462l-.216.013v.316c0 .594-.481 1.061-1.065 1.074h-3.7v-6.747h4.461c.685.038 1.23.606 1.23 1.301v.392h.228v-2.754c-.406.164-1.673.379-2.611.392h-6.401v.215h.279c.722 0 1.318.556 1.394 1.251v12.23c-.013.758-.634 1.365-1.407 1.365h-.279v.227h9.075l1.281-3.525h-.216z"></path><path d="m60.191 53.813.469.455h-60.5979997v-.455z"></path><path d="m126.936 53.813v.455h-60.598l.469-.455z"></path><path d="m63.499 51.961.603 1.218 1.348.195-.975.947.23 1.338-1.205-.632-1.206.632.23-1.338-.975-.947 1.348-.195z"></path><path d="m3.929 60.205-1.323 3.024h2.646zm1.863 4.272h-3.725l-.612 1.34h-1.455l3.196-7.104h1.466l3.197 7.104h-1.466z"></path><path d="m12.568 64.528h1.466c1.619 0 2.261-1.177 2.23-2.334-.03-1.106-.681-2.212-2.23-2.212h-1.466zm5.03-2.324c.03 1.797-1.07 3.613-3.564 3.613-.875 0-1.924 0-2.799 0v-7.104h2.799c2.444 0 3.533 1.736 3.564 3.491z"></path><path d="m24.7 65.848h-1.394l-2.963-7.134h1.507l2.148 5.531 2.159-5.531h1.507z"></path><path d="m31.069 65.817h1.333v-7.104h-1.333z"></path><path d="m40.836 60.428c-.245-.406-.917-.791-1.69-.791-.998 0-1.477.416-1.477.943 0 .619.734.792 1.589.893 1.486.182 2.871.568 2.871 2.263 0 1.583-1.405 2.263-2.994 2.263-1.455 0-2.575-.447-3.105-1.746l1.12-.579c.316.782 1.14 1.126 2.006 1.126.844 0 1.639-.294 1.639-1.065 0-.67-.703-.944-1.649-1.046-1.456-.173-2.8-.558-2.8-2.151 0-1.461 1.446-2.06 2.76-2.07 1.109 0 2.261.315 2.799 1.411z"></path><path d="m49.098 64.752c1.68 0 2.312-1.259 2.331-2.426.021-1.187-.661-2.507-2.3-2.537-1.517 0-2.414 1.137-2.373 2.547.031 1.166.662 2.416 2.342 2.416zm3.656-2.447c-.021 1.837-1.151 3.674-3.656 3.674-2.504 0-3.665-1.796-3.665-3.664 0-2.243 1.629-3.745 3.696-3.745 2.434.021 3.645 1.888 3.625 3.735z"></path><path d="m57.858 59.961v2.274h2.047c.856 0 1.223-.568 1.223-1.137 0-.568-.377-1.137-1.223-1.137zm4.969 5.856h-1.538l-2.067-2.375h-1.364v2.375h-1.343v-7.114c1.129 0 2.259.01 3.39.01 1.68.01 2.566 1.126 2.566 2.354 0 .974-.448 1.959-1.802 2.233l2.159 2.426v.091z"></path><path d="m68.708 61.646 1.894-2.933h1.619v.061l-2.841 4.11v2.932h-1.343v-2.932l-2.74-4.11v-.061h1.598z"></path><path d="m85.321 60.448c-.479-.457-1.191-.71-1.813-.71-1.527 0-2.454 1.157-2.454 2.618 0 1.167.683 2.375 2.454 2.375.561 0 1.049-.122 1.609-.569v-1.259h-1.823v-1.197h3.056v2.994c-.703.802-1.589 1.279-2.841 1.279-2.678 0-3.767-1.756-3.767-3.623 0-1.999 1.252-3.846 3.767-3.846.957 0 1.915.366 2.647 1.086z"></path><path d="m91.567 59.961v2.274h2.047c.855 0 1.223-.568 1.223-1.137 0-.568-.377-1.137-1.223-1.137zm4.969 5.856h-1.538l-2.067-2.375h-1.364v2.375h-1.343v-7.114c1.129 0 2.26.01 3.39.01 1.68.01 2.565 1.126 2.565 2.354 0 .974-.448 1.959-1.802 2.233l2.159 2.426z"></path><path d="m103.332 64.752c1.68 0 2.312-1.259 2.331-2.426.022-1.187-.661-2.507-2.3-2.537-1.517 0-2.414 1.137-2.373 2.547.032 1.166.662 2.416 2.342 2.416zm3.656-2.447c-.021 1.837-1.151 3.674-3.656 3.674-2.504 0-3.665-1.796-3.665-3.664 0-2.243 1.629-3.745 3.696-3.745 2.434.021 3.645 1.888 3.625 3.735z"></path><path d="m116.91 58.723v4.069c0 2.101-1.293 3.177-3.085 3.177-1.71 0-3.167-1.036-3.167-3.177v-4.069h1.334v4.069c0 1.279.733 1.959 1.843 1.959s1.741-.741 1.741-1.959v-4.069z"></path><path d="m122.352 62.499h2.015c1.721 0 1.711-2.517 0-2.517h-2.015zm0 1.228v2.09h-1.343v-7.104c1.109 0 2.249-.01 3.358-.01 3.503 0 3.513 4.993 0 5.024z"></path><path d="m48.467 2.23999c-.672-.089-1.331-.126-1.99-.202-2.611-.278-5.171-.24-7.579-.139-2.421.177-4.702.467-6.768.91-2.079.391-3.942.96-5.577 1.491-1.635.543-3.029 1.099-4.17 1.605-1.179.531-1.977.935-2.611 1.263-.038.025-.101.063-.165.101-.304.177-.824.467-1.318.771l1.749 1.857c.431-.24.799-.455.976-.556.101-.051.215-.127.355-.19.507-.29 1.229-.67 2.041-1.061 1.052-.493 2.358-1.074 3.904-1.63 1.546-.543 3.308-1.137 5.285-1.567 1.965-.493 4.132-.821 6.439-1.062 2.319-.164 4.778-.278 7.313-.076.634.051 1.267.076 1.914.152.516.062 1.046.134 1.578.206l-.551-1.737c-.275-.045-.552-.089-.825-.136z"></path><path d="m49.836 6.88898c-1.217-.114-2.408-.303-3.587-.354-2.37-.165-4.677-.152-6.857.013-1.09.051-2.142.215-3.169.316-1.014.177-2.003.291-2.928.505-1.876.366-3.574.821-5.045 1.289-1.483.467-2.75.947-3.815 1.37702-.52.202-.951.404-1.344.581-.076.038-.165.076-.241.114-.114.05-.228.088-.33.139-.152.076-.304.152-.431.215-.304.139-.52.253-.659.316l1.8 1.908c.114-.063.254-.126.406-.215.063-.038.139-.076.215-.114.089-.038.177-.076.279-.126.152-.076.304-.152.482-.228.253-.126.532-.253.824-.379.951-.43 2.129-.922 3.536-1.402 1.394-.493 2.991-.98502 4.778-1.39002.875-.228 1.825-.379 2.789-.581.976-.127 1.977-.316 3.017-.392 2.091-.227 4.309-.303 6.591-.227 1.153.025 2.307.164 3.486.24.555.083 1.114.152 1.672.227l-.531-1.672c-.313-.052-.628-.101-.938-.16z"></path><path d="m46.844 11.741c-1.052-.139-2.104-.025-3.118-.05-1.026.026-2.028-.038-3.004.076-1.927.228-3.79.304-5.45.695-.837.164-1.635.316-2.396.467-.76.202-1.483.404-2.155.594-1.382.341-2.484.746-3.397 1.087-.228.076-.431.164-.634.228-.203.076-.406.151-.583.215-.456.164-.659.265-.9.379l1.8 1.92c.342-.139.735-.303 1.191-.48.089-.038.19-.076.292-.114.367-.151.773-.315 1.191-.48.545-.215 1.128-.366 1.749-.581.621-.19 1.293-.404 1.99-.619.723-.164 1.483-.341 2.282-.518 1.572-.442 3.333-.581 5.184-.859.938-.152 1.901-.114 2.877-.177.989-.013 1.99-.164 3.017-.063 2.014.15 4.115.131 6.204.555l-.518-1.63c-1.883-.365-3.79-.447-5.622-.645z"></path><path d="m53.651 17.439c-.963-.228-1.939-.265-2.89-.392-.964-.089-1.914-.227-2.852-.265-1.863 0-3.688-.164-5.412.025-.862.051-1.698.114-2.51.164-.798.114-1.572.227-2.319.328-1.496.177-2.852.531-4.069.796-1.242.253-2.18.619-3.017.847-.013 0-.025.012-.038.012-.418.114-.71.19-1.116.341-.165.05-.304.101-.444.152l1.825 1.958c.165-.051.342-.114.507-.164.317-.101.659-.227 1.039-.354.57-.202 1.204-.429 1.889-.581 1.115-.29 2.358-.682 3.79-.909.71-.127 1.445-.266 2.218-.404.773-.088 1.572-.164 2.396-.253 1.635-.253 3.397-.152 5.209-.24.9.012 1.813.114 2.75.164.925.076 1.876.063 2.814.253.39.066.783.125 1.177.184l-.498-1.573c-.149-.03-.301-.058-.449-.089z"></path><path d="m54.322 22.341c-.849-.088-1.699-.189-2.535-.29-.824-.101-1.66-.19-2.471-.19-.824-.038-1.622-.063-2.408-.101-.799 0-1.572.05-2.32.063-1.508.013-2.915.215-4.221.341-1.318.139-2.51.417-3.587.581-.837.177-1.572.366-2.206.518-.152.038-.304.076-.444.101-.177.051-.355.089-.507.126-.177.05-.342.101-.494.139-.063.026-.127.038-.19.051l1.876 2.009c.469-.139 1.001-.303 1.597-.467.291-.089.608-.164.938-.253 1.001-.19 2.091-.505 3.334-.695 1.242-.177 2.586-.442 4.03-.505.722-.051 1.458-.139 2.218-.164.761-.013 1.534-.013 2.32-.025.798-.025 1.597.013 2.408.088.811.051 1.635.114 2.471.164.679.105 1.369.196 2.062.292l-.482-1.516c-.464-.087-.928-.174-1.389-.267z"></path><path d="m55.324 27.357c-1.458-.164-2.89-.316-4.284-.341-1.407-.088-2.75-.038-4.03-.013-1.293.025-2.497.177-3.625.253-1.115.164-2.155.303-3.055.455-.482.101-.925.19-1.343.265-.33.076-.646.139-.925.19-.279.063-.52.126-.748.189l1.876 2.009c.494-.126 1.039-.265 1.648-.417.849-.177 1.813-.366 2.852-.569 1.064-.139 2.218-.354 3.447-.442 1.23-.089 2.522-.215 3.878-.19 1.344-.063 2.738.025 4.157.101.868.038 1.733.14 2.601.25l-.462-1.454c-.662-.115-1.324-.223-1.987-.286z"></path><path d="m53.816 4.84198c1.319.24 2.598.69499 3.904 1.03599 1.306.379 2.573.88401 3.866 1.32701 1.306.455 2.624.909 3.929 1.364 1.305.417 2.56.96 3.904 1.276 1.331.32802 2.649.65702 3.955.97302.659.152 1.293.354 1.952.455.647.101 1.293.202 1.939.303 1.293.202 2.548.417 3.789.581 1.242.101 2.472.19 3.651.278.595.038 1.178.101 1.761.114.57 0 1.141-.013 1.711-.013 1.116-.013 2.193.013 3.232-.025 2.066-.189 3.98-.24 5.641-.53.824-.126 1.61-.24 2.332-.341.71-.152 1.369-.29 1.965-.404 1.178-.227 2.091-.518 2.712-.669.317-.089.558-.139.722-.19-.164.025-.405.089-.722.164-.634.139-1.546.392-2.738.581-.595.101-1.254.228-1.964.354-.722.076-1.508.177-2.345.265-1.66.253-3.561.253-5.615.379-1.027 0-2.104-.051-3.22-.063-.545-.012-1.115-.038-1.686-.051-.57-.025-1.153-.101-1.736-.164-1.179-.114-2.383-.24-3.612-.366-1.229-.202-2.471-.455-3.739-.682-.621-.114-1.267-.24-1.901-.354-.647-.114-1.267-.341-1.901-.50502-1.267-.341-2.56-.70701-3.853-1.06101-2.56-.821-5.146-1.89499-7.694-2.82999-1.305-.493-2.585-1.049-3.903-1.491-1.331-.379-2.636-.872-3.98-1.175-1.344-.291-2.662-.67-4.005-.846-.395-.069-.78-.132-1.167-.195l.551 1.737c.122.016.238.03.361.047 1.305.14 2.586.468 3.904.721z"></path><path d="m56.452 9.76899c1.191.29101 2.383.60701 3.536 1.02401 2.37.758 4.74 1.529 7.072 2.274 1.204.303 2.396.594 3.574.884.596.139 1.179.278 1.762.417.583.101 1.166.202 1.749.303 1.153.19 2.281.404 3.409.556 1.116.114 2.218.227 3.283.328 1.065.139 2.117.126 3.131.177 1.001.025 1.977.114 2.915.063 1.876-.05 3.587-.088 5.108-.253 1.508-.101 2.826-.303 3.904-.455 1.077-.139 1.914-.329 2.484-.43.368-.063.621-.114.761-.139-.14.013-.393.063-.761.114-.583.089-1.419.253-2.497.341-1.09.127-2.396.291-3.916.341-1.508.114-3.219.101-5.082.076-.925.025-1.889-.088-2.89-.139-1.001-.089-2.041-.101-3.093-.278-1.052-.139-2.142-.278-3.244-.429-1.103-.177-2.218-.442-3.359-.657-.57-.114-1.141-.24-1.724-.354-.558-.152-1.128-.316-1.711-.468-1.141-.316-2.294-.645-3.473-.973-2.294-.821-4.639-1.668-6.984-2.50201-1.179-.455-2.383-.821-3.587-1.163-1.192-.391-2.434-.619-3.638-.922-.894-.206-1.798-.348-2.699-.498l.531 1.673c.627.084 1.253.176 1.877.303 1.179.243 2.396.432 3.562.786z"></path><path d="m55.996 14.507c1.052.291 2.117.569 3.169.847 2.117.556 4.284 1.2 6.375 1.819 1.039.328 2.129.518 3.182.783 1.052.24 2.091.48 3.131.632 1.039.177 2.041.366 3.042.506 1.001.114 1.977.227 2.941.328.951.139 1.876.139 2.776.202.9.051 1.774.126 2.611.101.837.013 1.635.013 2.396.013.761-.013 1.483-.063 2.167-.088 1.356-.038 2.522-.177 3.498-.265.976-.076 1.724-.215 2.243-.278.254-.038.444-.063.583-.088-.139.012-.342.038-.596.063-.507.051-1.268.152-2.243.189-.964.063-2.142.165-3.498.152-.672 0-1.394.025-2.155.013-.761-.038-1.546-.063-2.383-.101-.824-.013-1.686-.113-2.585-.189-.887-.101-1.813-.139-2.75-.303-.938-.139-1.914-.278-2.89-.429-.989-.177-1.977-.404-3.004-.607-1.014-.189-2.028-.455-3.055-.733-1.027-.303-2.066-.518-3.105-.884-2.079-.695-4.157-1.39-6.312-2.034-1.077-.329-2.154-.657-3.232-.985-1.09-.228-2.193-.442-3.283-.657-.279-.069-.56-.111-.841-.165l.517 1.63c.028.005.055.007.083.013 1.063.174 2.14.338 3.218.515z"></path><path d="m64.513 21.354c.938.228 1.876.468 2.801.695.925.202 1.812.493 2.75.594 1.838.265 3.613.531 5.298.771 1.686.215 3.296.215 4.766.329.735.038 1.445.076 2.116.114.672-.025 1.318-.038 1.914-.063 1.204-.038 2.243-.076 3.105-.101.862-.013 1.534-.114 1.99-.139.228-.012.406-.038.532-.051-.127 0-.304.013-.532.025-.456.013-1.128.076-1.99.051-.862 0-1.901-.013-3.105-.013-.595-.013-1.229-.013-1.901-.025-.672-.064-1.369-.127-2.104-.202-1.458-.164-3.055-.228-4.715-.506-1.648-.303-3.384-.632-5.184-.973-.9-.126-1.8-.455-2.712-.695-.9-.265-1.825-.531-2.763-.796-1.851-.544-3.739-1.1-5.628-1.655-1.754-.583-3.569-.868-5.343-1.225l.499 1.573c1.511.229 3.036.446 4.514.877 1.915.481 3.817.948 5.692 1.415z"></path><path d="m63.804 25.713c1.66.354 3.27.771 4.854 1.062 1.61.227 3.156.455 4.626.67 1.47.19 2.877.215 4.157.329.647.038 1.255.076 1.851.114h1.66c1.052-.012 1.964-.012 2.712-.025.76.013 1.344-.063 1.749-.076.393-.025.609-.038.609-.038s-.215.013-.621.013c-.393 0-.989.038-1.736 0-.748-.038-1.66-.076-2.7-.114-.52-.025-1.077-.038-1.66-.063-.583-.063-1.191-.139-1.838-.202-1.268-.177-2.662-.265-4.107-.518-1.432-.278-2.953-.568-4.512-.872-1.559-.354-3.156-.846-4.791-1.276-1.635-.455-3.283-.909-4.943-1.364-1.215-.33-2.458-.554-3.693-.783l.481 1.516c.977.135 1.961.282 2.933.504 1.661.378 3.334.744 4.969 1.123z"></path><path d="m67.632 30.805c1.369.164 2.7.329 3.954.48 1.255.139 2.459.164 3.549.24 1.103.088 2.116.088 3.003.088.9-.013 1.674-.013 2.32-.013 1.28-.038 2.015-.076 2.015-.076s-.735 0-2.015-.025c-.634-.038-1.42-.076-2.307-.126-.887-.038-1.889-.088-2.978-.24-1.09-.139-2.281-.215-3.511-.43-1.229-.215-2.522-.442-3.866-.682-2.687-.644-5.539-1.327-8.391-2.009-.801-.124-1.594-.272-2.386-.409l.462 1.454c.564.071 1.127.146 1.696.205 2.877.52 5.755 1.05 8.455 1.543z"></path></g></svg> 